<svg xmlns="http://www.w3.org/2000/svg" width="640" height="640" viewBox="0 0 640 640">
<defs>
  <radialGradient id="bg" cx="0.5" cy="0.4" r="0.95">
    <stop offset="0" stop-color="#1C2150"/>
    <stop offset="0.55" stop-color="#0E1130"/>
    <stop offset="1" stop-color="#05060F"/>
  </radialGradient>
  <linearGradient id="sheen" x1="0" y1="0" x2="1" y2="1">
    <stop offset="0" stop-color="#ffffff" stop-opacity="0.10"/>
    <stop offset="0.4" stop-color="#ffffff" stop-opacity="0"/>
  </linearGradient>
  <!-- глянцевое золото для ?! -->
  <linearGradient id="gold" x1="0" y1="0" x2="0" y2="1">
    <stop offset="0" stop-color="#FFF6D5"/>
    <stop offset="0.32" stop-color="#FFE08A"/>
    <stop offset="0.55" stop-color="#F4B740"/>
    <stop offset="0.78" stop-color="#D9891B"/>
    <stop offset="1" stop-color="#9C5A12"/>
  </linearGradient>
  <!-- верхний блик -->
  <linearGradient id="gloss" x1="0" y1="0" x2="0" y2="1">
    <stop offset="0" stop-color="#ffffff" stop-opacity="0.9"/>
    <stop offset="0.42" stop-color="#ffffff" stop-opacity="0.05"/>
    <stop offset="0.5" stop-color="#ffffff" stop-opacity="0"/>
  </linearGradient>
  <linearGradient id="ring" x1="0" y1="0" x2="1" y2="1">
    <stop offset="0" stop-color="#FFE9A8"/>
    <stop offset="0.5" stop-color="#E0A733"/>
    <stop offset="1" stop-color="#8A5A16"/>
  </linearGradient>
  <linearGradient id="txt" x1="0" y1="0" x2="0" y2="1">
    <stop offset="0" stop-color="#FFFDF5"/>
    <stop offset="1" stop-color="#F3D9A0"/>
  </linearGradient>
  <filter id="glow" x="-80%" y="-80%" width="260%" height="260%">
    <feGaussianBlur stdDeviation="10" result="b"/>
    <feMerge><feMergeNode in="b"/><feMergeNode in="SourceGraphic"/></feMerge>
  </filter>
  <filter id="cyanglow" x="-90%" y="-90%" width="280%" height="280%">
    <feGaussianBlur stdDeviation="7" result="b"/>
    <feMerge><feMergeNode in="b"/><feMergeNode in="b"/><feMergeNode in="SourceGraphic"/></feMerge>
  </filter>
  <filter id="drop" x="-60%" y="-60%" width="220%" height="220%">
    <feDropShadow dx="0" dy="10" stdDeviation="12" flood-color="#000000" flood-opacity="0.55"/>
  </filter>
  <radialGradient id="bok" cx="0.5" cy="0.5" r="0.5">
    <stop offset="0" stop-color="#ffffff" stop-opacity="0.5"/>
    <stop offset="1" stop-color="#ffffff" stop-opacity="0"/>
  </radialGradient></defs>
  <rect width="640" height="640" rx="150" fill="url(#bg)"/>
  <rect width="640" height="640" rx="150" fill="url(#sheen)"/>
  
  <g>
    <circle cx="130" cy="150" r="70" fill="url(#bok)" opacity="0.25"/>
    <circle cx="520" cy="140" r="55" fill="url(#bok)" opacity="0.20"/>
    <circle cx="540" cy="470" r="80" fill="url(#bok)" opacity="0.18"/>
    <circle cx="110" cy="500" r="50" fill="url(#bok)" opacity="0.16"/>
  </g>
    <path d="M150,112 C153.2,128.8 153.2,128.8 170,132 C153.2,135.2 153.2,135.2 150,152 C146.8,135.2 146.8,135.2 130,132 C146.8,128.8 146.8,128.8 150,112 Z" fill="#FFF7DC" opacity="0.95"/>
  <path d="M505,105 C507.4,117.6 507.4,117.6 520,120 C507.4,122.4 507.4,122.4 505,135 C502.6,122.4 502.6,122.4 490,120 C502.6,117.6 502.6,117.6 505,105 Z" fill="#FFF7DC" opacity="0.8"/>
  <path d="M540,288 C541.92,298.08 541.92,298.08 552,300 C541.92,301.92 541.92,301.92 540,312 C538.08,301.92 538.08,301.92 528,300 C538.08,298.08 538.08,298.08 540,288 Z" fill="#FFF7DC" opacity="0.7"/>
  <path d="M112,347 C114.08,357.92 114.08,357.92 125,360 C114.08,362.08 114.08,362.08 112,373 C109.92,362.08 109.92,362.08 99,360 C109.92,357.92 109.92,357.92 112,347 Z" fill="#FFF7DC" opacity="0.7"/>
  <path d="M470,460 C471.6,468.4 471.6,468.4 480,470 C471.6,471.6 471.6,471.6 470,480 C468.4,471.6 468.4,471.6 460,470 C468.4,468.4 468.4,468.4 470,460 Z" fill="#BFEFFF" opacity="0.7"/>
  <path d="M190,496 C191.44,503.56 191.44,503.56 199,505 C191.44,506.44 191.44,506.44 190,514 C188.56,506.44 188.56,506.44 181,505 C188.56,503.56 188.56,503.56 190,496 Z" fill="#FFF7DC" opacity="0.6"/>
  <circle cx="320" cy="322" r="230" fill="none" stroke="#22D3EE" stroke-width="3" opacity="0.35" filter="url(#cyanglow)"/>
  <circle cx="320" cy="322" r="214" fill="none" stroke="url(#ring)" stroke-width="7" filter="url(#glow)"/>
  <circle cx="320" cy="322" r="205" fill="none" stroke="#FFF3C4" stroke-width="1.5" opacity="0.5"/>
  <text x="320" y="424" text-anchor="middle" font-family="'Arial Black', Impact, Arial, sans-serif" font-size="290" font-weight="900" letter-spacing="-10" fill="#F4B740" opacity="0.45" filter="url(#glow)">?!</text>
  <text x="320" y="424" text-anchor="middle" font-family="'Arial Black', Impact, Arial, sans-serif" font-size="290" font-weight="900" letter-spacing="-10" fill="url(#gold)" stroke="#7A4A11" stroke-width="2.5" filter="url(#drop)">?!</text>
  <text x="320" y="424" text-anchor="middle" font-family="'Arial Black', Impact, Arial, sans-serif" font-size="290" font-weight="900" letter-spacing="-10" fill="url(#gloss)">?!</text>
</svg>