<svg xmlns="http://www.w3.org/2000/svg" width="640" height="640" viewBox="0 0 640 640">
  <defs>
    <linearGradient id="bg" x1="0" y1="0" x2="1" y2="1">
      <stop offset="0"   stop-color="#7C3AED"/>
      <stop offset="0.5" stop-color="#DB2777"/>
      <stop offset="1"   stop-color="#2563EB"/>
    </linearGradient>
    <radialGradient id="glow" cx="0.5" cy="0.42" r="0.65">
      <stop offset="0"   stop-color="#ffffff" stop-opacity="0.28"/>
      <stop offset="1"   stop-color="#ffffff" stop-opacity="0"/>
    </radialGradient>
    <linearGradient id="star" x1="0" y1="0" x2="0" y2="1">
      <stop offset="0"   stop-color="#FDE047"/>
      <stop offset="1"   stop-color="#F59E0B"/>
    </linearGradient>
    <filter id="soft" x="-20%" y="-20%" width="140%" height="140%">
      <feDropShadow dx="0" dy="8" stdDeviation="10" flood-color="#1e1b4b" flood-opacity="0.35"/>
    </filter>
  </defs>
  <rect width="640" height="640" rx="140" fill="url(#bg)"/>
  <rect width="640" height="640" rx="140" fill="url(#glow)"/>
  <g fill="#FDE047" opacity="0.9">
    <circle cx="118" cy="150" r="9"/><circle cx="540" cy="128" r="6"/>
    <circle cx="90"  cy="470" r="6"/><circle cx="560" cy="500" r="9"/>
    <circle cx="150" cy="560" r="5"/><circle cx="500" cy="360" r="5"/>
  </g>
  <polygon points="320.0,18.0 365.8,85.2 436.3,44.5 448.4,124.9 529.5,118.9 505.6,196.6 581.3,226.4 526.0,286.0 581.3,345.6 505.6,375.4 529.5,453.1 448.4,447.1 436.3,527.5 365.8,486.8 320.0,554.0 274.2,486.8 203.7,527.5 191.6,447.1 110.5,453.1 134.4,375.4 58.7,345.6 114.0,286.0 58.7,226.4 134.4,196.6 110.5,118.9 191.6,124.9 203.7,44.5 274.2,85.2" fill="url(#star)" stroke="#1e1b4b" stroke-width="10"
           stroke-linejoin="round" filter="url(#soft)"/>
  <polygon points="320.0,40.0 362.7,98.8 426.7,64.4 439.7,135.9 512.3,132.6 493.0,202.7 559.8,231.3 512.0,286.0 559.8,340.7 493.0,369.3 512.3,439.4 439.7,436.1 426.7,507.6 362.7,473.2 320.0,532.0 277.3,473.2 213.3,507.6 200.3,436.1 127.7,439.4 147.0,369.3 80.2,340.7 128.0,286.0 80.2,231.3 147.0,202.7 127.7,132.6 200.3,135.9 213.3,64.4 277.3,98.8" fill="none" stroke="#ffffff" stroke-width="4"
           stroke-linejoin="round" opacity="0.55"/>
  <text x="320" y="371" text-anchor="middle"
        font-family="'Arial Black', Impact, Arial, sans-serif" font-size="250"
        font-weight="900" fill="#1e1b4b" letter-spacing="-6">?!</text>
  <text x="320" y="558" text-anchor="middle"
        font-family="'Arial Black', Impact, Arial, sans-serif" font-size="74"
        font-weight="900" fill="#ffffff" stroke="#1e1b4b" stroke-width="7"
        paint-order="stroke" letter-spacing="1">СТОП, ЧТО?!</text>
</svg>